<svg width="64" height="64" viewBox="0 0 64 64" fill="none" xmlns="http://www.w3.org/2000/svg">
<circle cx="32" cy="32" r="30" fill="white" stroke="white" stroke-width="4"/>
<g clip-path="url(#clip0_1071_541)">
<path d="M33.8 35.1C33.8 34.62 33.67 34.24 33.4 33.95C33.13 33.67 32.68 33.4 32.04 33.16C31.4 32.92 30.85 32.68 30.39 32.44C29.93 32.2 29.53 31.93 29.2 31.62C28.87 31.31 28.61 30.95 28.43 30.53C28.25 30.11 28.15 29.62 28.15 29.04C28.15 28.05 28.47 27.24 29.1 26.61C29.73 25.98 30.57 25.61 31.62 25.5V23.62H33.03V25.53C34.07 25.68 34.88 26.11 35.47 26.83C36.06 27.55 36.35 28.48 36.35 29.62H33.81C33.81 28.92 33.67 28.39 33.37 28.04C33.08 27.69 32.69 27.52 32.21 27.52C31.73 27.52 31.36 27.66 31.09 27.93C30.82 28.2 30.69 28.58 30.69 29.06C30.69 29.51 30.82 29.86 31.08 30.13C31.34 30.4 31.82 30.67 32.52 30.96C33.22 31.24 33.8 31.51 34.25 31.76C34.7 32.01 35.08 32.29 35.39 32.6C35.7 32.91 35.94 33.27 36.1 33.67C36.26 34.07 36.35 34.54 36.35 35.07C36.35 36.07 36.04 36.87 35.42 37.5C34.8 38.13 33.94 38.49 32.85 38.6V40.35H31.45V38.61C30.25 38.48 29.32 38.05 28.66 37.33C28 36.61 27.67 35.64 27.67 34.44H30.21C30.21 35.14 30.37 35.67 30.71 36.04C31.04 36.41 31.52 36.6 32.14 36.6C32.66 36.6 33.06 36.46 33.36 36.19C33.66 35.92 33.81 35.55 33.81 35.09L33.8 35.1Z" fill="#008085"/>
<path d="M22 28.55H20V20H28.55V22H22V28.55Z" fill="#008085"/>
<path d="M42 28.55H44V20H35.45V22H42V28.55Z" fill="#008085"/>
<path d="M22 35.45H20V44H28.55V42H22V35.45Z" fill="#008085"/>
<path d="M42 35.45H44V44H35.45V42H42V35.45Z" fill="#008085"/>
</g>
<defs>
<clipPath id="clip0_1071_541">
<rect width="24" height="24" fill="white" transform="translate(20 20)"/>
</clipPath>
</defs>
</svg>
