<svg width="28" height="28" viewBox="0 0 28 28" fill="none" xmlns="http://www.w3.org/2000/svg">
<g clip-path="url(#clip0_100_1746)">
<path d="M14 28C21.732 28 28 21.732 28 14C28 6.26801 21.732 9.99801e-08 14 6.44084e-08C6.26802 2.88366e-08 3.30117e-06 6.26801 2.6677e-06 14C2.03423e-06 21.732 6.26802 28 14 28Z" fill="url(#paint0_linear_100_1746)"/>
<path d="M14 25.9001C20.5722 25.9001 25.9 20.5723 25.9 14.0001C25.9 7.42791 20.5722 2.1001 14 2.1001C7.42781 2.1001 2.1 7.42791 2.1 14.0001C2.1 20.5723 7.42781 25.9001 14 25.9001Z" fill="#F5BE00"/>
<path d="M17.675 16.3464C17.675 12.7477 12.362 13.4505 12.362 11.3246C12.362 10.2151 13.6101 10.1563 14 10.1563C14.938 10.1563 15.8431 10.4076 16.5333 10.7317C16.751 10.8339 17.0009 10.6827 17.0009 10.4426L17.0009 9.3954C17.0009 9.044 16.8686 8.8361 16.6579 8.7535C16.1847 8.5701 15.5057 8.435 14.5005 8.4021L14.5005 7.2499C14.5005 7.112 14.3885 7 14.2506 7L13.7508 7C13.6129 7 13.5009 7.112 13.5009 7.2499L13.5009 8.421C11.9413 8.5722 10.325 9.4521 10.325 11.4982C10.325 15.2285 15.638 14.4886 15.638 16.4535C15.638 17.0709 15.2432 17.6029 14 17.6029C12.7498 17.6029 11.6011 17.1661 10.9655 16.8413C10.7513 16.7321 10.4993 16.8903 10.4993 17.1311L10.4993 18.3232C10.4993 18.5521 10.6365 18.7551 10.8479 18.844C11.6011 19.1639 12.6119 19.4061 13.5002 19.4768L13.5002 20.7508C13.5002 20.8887 13.6122 21.0007 13.7501 21.0007L14.2499 21.0007C14.3878 21.0007 14.4998 20.8887 14.4998 20.7508L14.4998 19.4803C16.8315 19.2857 17.675 17.724 17.675 16.3464Z" fill="#FEE119"/>
</g>
<defs>
<linearGradient id="paint0_linear_100_1746" x1="4.3911" y1="4.3904" x2="23.8784" y2="23.8791" gradientUnits="userSpaceOnUse">
<stop stop-color="#FEDE00"/>
<stop offset="1" stop-color="#FFD000"/>
</linearGradient>
<clipPath id="clip0_100_1746">
<rect width="28" height="28" fill="white"/>
</clipPath>
</defs>
</svg>
