<svg width="48" height="48" viewBox="0 0 48 48" fill="none" xmlns="http://www.w3.org/2000/svg">
<mask id="mask0_197_5698" style="mask-type:alpha" maskUnits="userSpaceOnUse" x="0" y="0" width="48" height="48">
<rect width="48" height="48" fill="#D9D9D9"/>
</mask>
<g mask="url(#mask0_197_5698)">
<path fill-rule="evenodd" clip-rule="evenodd" d="M33 2H10V10C10 10.5523 9.55229 11 9 11H1V44C1 45.1046 1.89543 46 3 46H33C34.1046 46 35 45.1046 35 44V4C35 2.89543 34.1046 2 33 2Z" fill="white"/>
<rect x="8" y="15" width="10" height="2" rx="1" fill="#0C8791"/>
<rect x="8" y="22" width="12" height="2" rx="1" fill="#0C8791"/>
<rect x="8" y="29" width="13" height="2" rx="1" fill="#0C8791"/>
<path d="M10 2L5.5 6.5L1 11H9C9.55228 11 10 10.5523 10 10V2Z" fill="#FDC231"/>
<circle cx="35" cy="18" r="11" fill="#F6BD3E" stroke="white" stroke-width="2"/>
<path d="M35.6792 12.2788V14.1768H34.7017V12.2788H35.6792ZM35.5586 22.6445V24.3457H34.5874V22.6445H35.5586ZM36.5171 20.5942C36.5171 20.3488 36.4663 20.1351 36.3647 19.9531C36.2674 19.7669 36.1066 19.5998 35.8823 19.4517C35.658 19.2993 35.3576 19.1576 34.981 19.0264C34.4393 18.8359 33.9653 18.6222 33.5591 18.3853C33.1571 18.144 32.8439 17.8478 32.6196 17.4966C32.3996 17.1411 32.2896 16.6989 32.2896 16.1699C32.2896 15.6494 32.408 15.1987 32.645 14.8179C32.8862 14.437 33.2205 14.1429 33.6479 13.9355C34.0754 13.7282 34.5747 13.6245 35.146 13.6245C35.5861 13.6245 35.9818 13.6901 36.333 13.8213C36.6885 13.9525 36.991 14.145 37.2407 14.3989C37.4904 14.6528 37.6808 14.966 37.812 15.3384C37.9474 15.7065 38.0151 16.1297 38.0151 16.6079H36.4917C36.4917 16.3371 36.46 16.0959 36.3965 15.8843C36.3372 15.6685 36.2484 15.4865 36.1299 15.3384C36.0114 15.186 35.8675 15.0697 35.6982 14.9893C35.5332 14.9089 35.3449 14.8687 35.1333 14.8687C34.8328 14.8687 34.5853 14.9258 34.3906 15.04C34.196 15.1501 34.0521 15.3024 33.959 15.4971C33.8701 15.6917 33.8257 15.9139 33.8257 16.1636C33.8257 16.4048 33.8722 16.6164 33.9653 16.7983C34.0584 16.9803 34.2171 17.1453 34.4414 17.2935C34.6699 17.4373 34.9831 17.5833 35.3809 17.7314C35.9268 17.9261 36.3986 18.144 36.7964 18.3853C37.1984 18.6222 37.5073 18.9163 37.7231 19.2676C37.9432 19.6146 38.0532 20.0526 38.0532 20.5815C38.0532 21.1274 37.9263 21.5908 37.6724 21.9717C37.4227 22.3525 37.0715 22.6424 36.6187 22.8413C36.1701 23.036 35.6475 23.1333 35.0508 23.1333C34.6742 23.1333 34.2996 23.0846 33.9272 22.9873C33.5591 22.8857 33.2248 22.7207 32.9243 22.4922C32.6239 22.2637 32.3848 21.9611 32.207 21.5845C32.0293 21.2036 31.9404 20.7381 31.9404 20.188H33.4766C33.4766 20.5181 33.521 20.7931 33.6099 21.0132C33.6987 21.2332 33.8193 21.4067 33.9717 21.5337C34.124 21.6606 34.2933 21.7516 34.4795 21.8066C34.6699 21.8617 34.8604 21.8892 35.0508 21.8892C35.3682 21.8892 35.6348 21.8363 35.8506 21.7305C36.0706 21.6204 36.2357 21.4681 36.3457 21.2734C36.46 21.0745 36.5171 20.8481 36.5171 20.5942Z" fill="black"/>
</g>
</svg>
