<svg width="64" height="64" viewBox="0 0 64 64" fill="none" xmlns="http://www.w3.org/2000/svg">
<circle cx="32" cy="32" r="30" fill="white" stroke="white" stroke-width="4"/>
<path d="M32.97 35.48L34.42 34.03C33.6 32.82 32.46 31.85 31.11 31.24C32.57 30.22 33.52 28.53 33.52 26.63C33.52 23.53 30.99 21 27.89 21C24.79 21 22.26 23.53 22.26 26.63C22.26 28.54 23.22 30.22 24.67 31.24C21.92 32.48 20 35.24 20 38.44C20 38.99 20.45 39.44 21 39.44C21.55 39.44 22 38.99 22 38.44C22 35.19 24.64 32.55 27.89 32.55C30.06 32.55 31.95 33.73 32.97 35.48ZM27.89 30.26C25.89 30.26 24.26 28.63 24.26 26.63C24.26 24.63 25.89 23 27.89 23C29.89 23 31.52 24.63 31.52 26.63C31.52 28.63 29.89 30.26 27.89 30.26Z" fill="#008085"/>
<path d="M31.71 42.17C31.45 42.17 31.2 42.07 31 41.88L26.55 37.43C26.16 37.04 26.16 36.41 26.55 36.02C26.94 35.63 27.57 35.63 27.96 36.02L31.71 39.77L41.41 30.07C41.8 29.68 42.43 29.68 42.82 30.07C43.21 30.46 43.21 31.09 42.82 31.48L32.41 41.89C32.21 42.09 31.96 42.18 31.7 42.18L31.71 42.17Z" fill="#008085"/>
</svg>
