<svg width="54" height="72" viewBox="0 0 54 72" fill="none" xmlns="http://www.w3.org/2000/svg">
<path fill-rule="evenodd" clip-rule="evenodd" d="M49.6217 30.5653C51.1171 19.5415 46.2127 11.4593 39.0553 7.0822C36.2353 5.35667 33.0628 4.2078 29.7973 3.68275C26.533 3.15788 23.1709 3.25728 19.9686 4.02539C11.7668 5.99338 4.61386 12.3463 2.7913 23.8545C2.78032 23.9238 2.78814 23.9947 2.8147 24.0603C2.83773 24.1181 2.87387 24.1683 2.91904 24.2067C2.95142 24.3333 3.00218 24.4568 3.07419 24.5741L14.789 43.7621C15.5396 43.269 16.3412 42.8525 17.1803 42.5226L5.55159 23.4757C7.5506 22.8908 9.49505 22.6724 11.3681 22.9117C13.5134 23.1858 15.5775 24.0627 17.5408 25.68L19.7177 41.8126C20.5915 41.6626 21.4903 41.6031 22.4035 41.6408L20.3152 26.1596C22.3121 25.2797 24.2804 24.9184 26.2113 25.1765C28.2381 25.4462 30.241 26.4 32.2128 28.1521L25.5281 42.152C26.4032 42.4074 27.2331 42.7518 28.0128 43.1725L35.0759 28.3801C37.0806 27.6313 39.0084 27.3381 40.842 27.5856C42.8287 27.8526 44.7225 28.7578 46.5036 30.4039L30.1372 44.6086C30.8302 45.185 31.461 45.831 32.0181 46.5351L49.1587 31.6584C49.1876 31.6341 49.2145 31.6071 49.2415 31.5801C49.3824 31.5411 49.4966 31.4221 49.5212 31.2673L49.5504 31.0831C49.6066 30.9164 49.632 30.7413 49.6227 30.5666L49.6217 30.5653Z" fill="#16B09E"/>
<path d="M21.6837 72C30.8747 72 38.3255 64.5492 38.3255 55.3581C38.3255 46.1671 30.8747 38.7163 21.6837 38.7163C12.4927 38.7163 5.04187 46.1671 5.04187 55.3581C5.04187 64.5492 12.4927 72 21.6837 72Z" fill="url(#paint0_linear_102_2019)"/>
<path d="M21.6837 69.5035C29.4961 69.5035 35.8293 63.1703 35.8293 55.358C35.8293 47.5456 29.4961 41.2124 21.6837 41.2124C13.8713 41.2124 7.53815 47.5456 7.53815 55.358C7.53815 63.1703 13.8713 69.5035 21.6837 69.5035Z" fill="#F5BE00"/>
<path d="M26.0523 58.1472C26.0523 53.8694 19.7368 54.7048 19.7368 52.1778C19.7368 50.8589 21.2204 50.789 21.6839 50.789C22.7989 50.789 23.8748 51.0877 24.6952 51.473C24.954 51.5945 25.251 51.4147 25.251 51.1293L25.251 49.8845C25.251 49.4668 25.0938 49.2197 24.8433 49.1215C24.2808 48.9035 23.4737 48.7429 22.2788 48.7038L22.2788 47.3342C22.2788 47.1702 22.1457 47.0371 21.9817 47.0371L21.3876 47.0371C21.2237 47.0371 21.0906 47.1702 21.0906 47.3342L21.0906 48.7263C19.2367 48.906 17.3154 49.9519 17.3154 52.3841C17.3154 56.8183 23.6309 55.9388 23.6309 58.2745C23.6309 59.0084 23.1616 59.6408 21.6839 59.6408C20.1977 59.6408 18.8323 59.1216 18.0767 58.7355C17.8221 58.6057 17.5226 58.7937 17.5226 59.08L17.5226 60.497C17.5226 60.7691 17.6856 61.0104 17.9369 61.1161C18.8323 61.4964 20.0338 61.7843 21.0897 61.8683L21.0897 63.3827C21.0897 63.5466 21.2229 63.6798 21.3868 63.6798L21.9809 63.6798C22.1448 63.6798 22.278 63.5466 22.278 63.3827L22.278 61.8725C25.0497 61.6412 26.0523 59.7848 26.0523 58.1472Z" fill="#FEE119"/>
<defs>
<linearGradient id="paint0_linear_102_2019" x1="10.2616" y1="43.9352" x2="33.4262" y2="67.1015" gradientUnits="userSpaceOnUse">
<stop stop-color="#FEDE00"/>
<stop offset="1" stop-color="#FFD000"/>
</linearGradient>
</defs>
</svg>
