<svg width="300" height="6" viewBox="0 0 300 6" fill="none" xmlns="http://www.w3.org/2000/svg">
<path d="M-65 3C-61.6667 0.333333 -58.3333 0.333333 -55 3C-51.6667 5.66667 -48.3333 5.66667 -45 3C-41.6667 0.333333 -38.3333 0.333333 -35 3C-31.6667 5.66667 -28.3334 5.66667 -25 3C-21.6668 0.333333 -18.3332 0.333333 -15 3C-11.6668 5.66667 -8.33321 5.66667 -5.00001 3C-1.66681 0.333333 1.66679 0.333333 4.99998 3C8.33318 5.66667 11.6668 5.66667 15 3C18.3332 0.333333 21.6668 0.333333 25 3C28.3332 5.66667 31.6668 5.66667 35 3C38.3332 0.333333 41.6667 0.333333 44.9999 3C48.3331 5.66667 51.6667 5.66667 54.9999 3C58.3331 0.333333 61.6667 0.333333 64.9999 3C68.3331 5.66667 71.6667 5.66667 74.9999 3C78.3331 0.333333 81.6667 0.333333 84.9999 3C88.3331 5.66667 91.6667 5.66667 94.9999 3C98.3331 0.333333 101.667 0.333333 105 3C108.333 5.66667 111.667 5.66667 115 3C118.333 0.333333 121.667 0.333333 125 3C128.333 5.66667 131.667 5.66667 135 3C138.333 0.333333 141.667 0.333333 145 3C148.333 5.66667 151.667 5.66667 155 3C158.333 0.333333 161.667 0.333333 165 3C168.333 5.66667 171.667 5.66667 175 3C178.333 0.333333 181.667 0.333333 185 3C188.333 5.66667 191.667 5.66667 195 3C198.333 0.333333 201.667 0.333333 205 3C208.333 5.66667 211.667 5.66667 215 3C218.333 0.333333 221.667 0.333333 225 3C228.333 5.66667 231.667 5.66667 235 3C238.333 0.333333 241.667 0.333333 245 3C248.333 5.66667 251.667 5.66667 255 3C258.333 0.333333 261.667 0.333333 265 3C268.333 5.66667 271.667 5.66667 275 3C278.333 0.333333 281.667 0.333333 285 3C288.333 5.66667 291.667 5.66667 295 3C298.333 0.333333 301.667 0.333333 305 3C308.333 5.66667 311.667 5.66667 315 3C318.333 0.333333 321.667 0.333333 325 3C328.333 5.66667 331.667 5.66667 335 3" stroke="#1DA4A8" stroke-width="1.5"/>
</svg>
