<svg width="64" height="64" viewBox="0 0 64 64" fill="none" xmlns="http://www.w3.org/2000/svg">
<circle cx="32" cy="32" r="30" fill="white" stroke="white" stroke-width="4"/>
<path d="M36.9 33.47C36.9 33.1 36.8 32.81 36.59 32.59C36.39 32.37 36.04 32.17 35.54 31.98C35.04 31.79 34.62 31.61 34.27 31.43C33.92 31.25 33.61 31.04 33.35 30.8C33.09 30.56 32.9 30.28 32.75 29.96C32.6 29.64 32.54 29.26 32.54 28.82C32.54 28.06 32.78 27.43 33.27 26.95C33.76 26.46 34.4 26.18 35.21 26.1V24.65H36.29V26.12C37.09 26.23 37.71 26.57 38.17 27.12C38.63 27.67 38.85 28.39 38.85 29.27H36.89C36.89 28.73 36.78 28.32 36.55 28.06C36.33 27.79 36.03 27.66 35.65 27.66C35.27 27.66 34.99 27.76 34.79 27.97C34.59 28.18 34.48 28.47 34.48 28.84C34.48 29.18 34.58 29.46 34.78 29.67C34.98 29.88 35.35 30.09 35.89 30.31C36.43 30.53 36.87 30.73 37.22 30.92C37.57 31.11 37.86 31.33 38.1 31.57C38.34 31.81 38.52 32.09 38.65 32.4C38.78 32.71 38.84 33.07 38.84 33.48C38.84 34.25 38.6 34.87 38.12 35.35C37.64 35.83 36.98 36.11 36.14 36.2V37.55H35.06V36.21C34.14 36.11 33.42 35.78 32.91 35.23C32.4 34.68 32.15 33.93 32.15 33.01H34.11C34.11 33.55 34.24 33.96 34.49 34.25C34.74 34.54 35.11 34.68 35.59 34.68C35.99 34.68 36.3 34.58 36.53 34.37C36.76 34.16 36.87 33.88 36.87 33.52L36.9 33.47Z" fill="#008085"/>
<path d="M42 22V42H22V22H42ZM42.36 20H21.64C20.74 20 20 20.74 20 21.64V42.36C20 43.27 20.74 44 21.64 44H42.36C43.27 44 44 43.26 44 42.36V21.64C44 20.73 43.26 20 42.36 20Z" fill="#008085"/>
<path d="M30.03 35.68L26.1 39.6L24.69 38.19L27.2 35.68L24.69 33.17L26.1 31.75L30.03 35.68Z" fill="#008085"/>
</svg>
