<svg width="37" height="36" viewBox="0 0 37 36" fill="none" xmlns="http://www.w3.org/2000/svg">
<path d="M34.2385 4.55694V11.0224C31.483 4.55694 25.069 0 17.5955 0C9.01 0 1.80094 6.04094 0 14.0991H2.17385C3.92327 7.20906 10.1779 2.12 17.5979 2.12C24.277 2.12 29.9474 6.25442 32.3324 12.0845L26.7134 12.0825V14.2025H36.3588V4.55699L34.2385 4.55694Z" fill="white"/>
<path d="M18.7631 33.2823C12.084 33.2823 6.41353 29.1479 4.02853 23.3178H9.64759V21.1978L0 21.1998V30.8453H2.12V24.3798C4.87558 30.8453 11.2895 35.4022 18.7631 35.4022C27.3485 35.4022 34.5576 29.3613 36.3585 21.3032H34.1847C32.4353 28.1412 26.1827 33.2822 18.7627 33.2822L18.7631 33.2823Z" fill="white"/>
</svg>
